PathFileType	4	(X/Y/Z)	c:/Users/goper/Files/vsCode/490R/osim_files/A06/A06_Slow_02.trc
DataRate	CameraRate	NumFrames	NumMarkers	Units                	OrigDataRate	OrigDataStartFrame	OrigNumFrames
120.00	120.00	5	36	mm	120.0	722	1154
                Frame#	Time	LPSIS			LASIS			LTH1			LTH2			LTH3			LTH4			LLFE			LMFE			LSH1			LSH2			LSH3			LSH4			LLMAL			LMMAL			LCAL			LMTP5			LTOE			LMTP1			RPSIS			RASIS			RTH1			RTH2			RTH3			RTH4			RLFE			RMFE			RSH1			RSH2			RSH3			RSH4			RLMAL			RMMAL			RCAL			RMTP1			RTOE			RMTP5		
		X1	Y1	Z1	X2	Y2	Z2	X3	Y3	Z3	X4	Y4	Z4	X5	Y5	Z5	X6	Y6	Z6	X7	Y7	Z7	X8	Y8	Z8	X9	Y9	Z9	X10	Y10	Z10	X11	Y11	Z11	X12	Y12	Z12	X13	Y13	Z13	X14	Y14	Z14	X15	Y15	Z15	X16	Y16	Z16	X17	Y17	Z17	X18	Y18	Z18	X19	Y19	Z19	X20	Y20	Z20	X21	Y21	Z21	X22	Y22	Z22	X23	Y23	Z23	X24	Y24	Z24	X25	Y25	Z25	X26	Y26	Z26	X27	Y27	Z27	X28	Y28	Z28	X29	Y29	Z29	X30	Y30	Z30	X31	Y31	Z31	X32	Y32	Z32	X33	Y33	Z33	X34	Y34	Z34	X35	Y35	Z35	X36	Y36	Z36

722	6.00833	-1835.84253	996.81036	274.86307	-2020.78210	946.73657	352.03220	-2066.57007	602.40948	393.25070	-2091.25439	567.57458	387.72421	-2125.05054	629.96906	384.33957	-2138.77783	590.11780	379.58801	-2142.55811	511.52121	372.53506	-2144.70020	507.71036	262.68701	-2077.33667	420.45950	383.88855	-2080.93994	374.64273	389.39709	-2138.87646	419.17224	378.56604	-2134.86694	376.23889	383.00436	-2068.08765	118.38494	346.24530	-2094.13696	131.17671	264.81714	-2007.14648	111.82936	289.35330	-2178.27905	63.30902	371.45810	-2222.39355	85.50400	322.46182	-2203.34473	78.43473	281.56805	-1845.23657	1008.04291	144.13045	-2023.67859	965.24365	94.65520	-1874.98450	594.90924	61.71927	-1875.81738	551.28876	61.45558	-1936.08386	589.07812	70.60630	-1928.01660	546.17950	67.37752	-1886.47156	436.01328	89.62580	-1886.38477	438.56470	178.10767	-1847.98218	283.52271	105.42844	-1843.19934	236.20975	108.04049	-1907.52258	273.73825	117.26376	-1894.91431	227.02489	114.58988	-1825.62476	99.82442	103.35013	-1837.00830	103.63941	185.44530	-1767.08704	80.92313	149.93382	-1967.44165	53.96738	182.58946	-1984.28003	64.05170	141.97324	-1957.75818	49.84147	93.97803
723	6.01667	-1844.15515	996.45667	275.49771	-2029.07227	945.75140	352.64847	-2074.61597	601.43494	393.96014	-2099.09229	566.95996	388.50806	-2132.70166	629.38177	385.32556	-2146.49976	589.58032	380.63635	-2151.24146	511.24692	373.29913	-2152.98950	507.26062	263.73615	-2090.10645	417.53705	385.42435	-2096.13403	372.02975	391.17853	-2151.57495	419.65994	379.99969	-2149.83179	376.40491	384.74948	-2097.46191	115.20713	349.61380	-2122.27295	128.63432	268.79184	-2037.09875	104.84154	292.77658	-2210.41528	66.47324	375.35904	-2253.23364	90.55864	326.29968	-2234.31763	81.86091	285.19345	-1853.52759	1007.97095	144.72394	-2032.05176	964.43207	95.32920	-1880.00659	594.68781	62.58498	-1880.74768	551.50531	61.82957	-1941.48682	588.74188	71.06120	-1932.82800	545.91565	67.68343	-1890.23645	435.95831	90.07150	-1890.23474	438.50717	178.41058	-1850.47546	283.95932	105.63149	-1845.13086	236.78912	108.21481	-1909.71021	273.61914	117.49364	-1896.81860	227.09612	114.70984	-1825.81641	100.03051	103.36465	-1837.24866	103.67093	185.47534	-1767.17969	81.12235	149.96063	-1968.33765	53.60648	181.90294	-1984.34314	63.79076	142.04938	-1957.86255	49.77045	94.00134
724	6.02500	-1852.61267	996.04657	276.17004	-2037.57385	944.67627	353.22351	-2081.88330	600.43243	394.45532	-2106.61157	566.05121	389.14536	-2139.98560	628.44629	386.15024	-2153.98999	588.77173	381.51385	-2158.89111	510.92776	374.31259	-2160.74707	506.26190	264.77158	-2102.77148	414.48483	387.08899	-2111.26367	369.51230	393.08826	-2163.97217	420.01245	381.42807	-2164.66650	376.68808	386.42111	-2126.56372	112.81141	353.13364	-2150.32837	127.03230	272.12695	-2066.34619	98.97459	296.41940	-2242.50513	70.78235	378.96436	-2283.30200	96.63303	329.66956	-2264.99390	86.56628	288.67484	-1861.33398	1008.05066	145.17740	-2040.36755	963.65564	95.99331	-1885.46631	594.85602	63.02086	-1885.75671	551.66949	62.22499	-1946.80640	588.24274	71.52390	-1937.92993	545.73895	67.77977	-1894.18091	436.13135	90.26937	-1894.21228	438.54724	178.69489	-1852.83826	284.42776	105.88381	-1846.99731	237.20863	108.36971	-1912.05981	273.52609	117.65514	-1898.55994	227.02307	114.84981	-1826.02673	100.19846	103.38920	-1837.41113	103.79199	185.44974	-1767.28040	81.38326	149.94411	-1968.33899	53.64785	181.91135	-1984.49622	63.62584	142.03896	-1957.95471	49.68144	94.03524
725	6.03333	-1861.22766	995.49713	277.00934	-2046.26868	943.59888	353.90790	-2089.30786	598.94360	394.61893	-2113.82544	564.66077	389.79910	-2147.32031	627.24353	386.88800	-2161.42236	587.49463	382.21576	-2166.79297	510.15720	375.06812	-2168.11426	504.79092	265.67264	-2115.50439	411.39279	388.92606	-2126.39624	366.97708	395.15967	-2176.21899	420.19012	382.80066	-2179.39795	377.04279	388.10559	-2155.19995	111.24005	356.75552	-2177.70752	126.04874	275.47073	-2095.42871	93.58808	300.94421	-2273.18115	75.73747	382.24432	-2312.39502	103.58973	332.49020	-2295.30371	92.59351	291.00208	-1869.68811	1007.81854	145.91586	-2048.58789	962.82214	96.70435	-1891.00256	595.09265	63.48230	-1890.83679	551.91760	62.65747	-1952.26611	587.78796	71.99965	-1942.74927	545.17444	68.37395	-1898.19678	436.18390	90.64011	-1898.17883	438.57874	179.04716	-1855.29333	284.90125	106.07758	-1849.03625	237.74545	108.52033	-1914.35217	273.28790	117.92503	-1900.50330	227.04126	115.08926	-1826.24707	100.42027	103.45214	-1837.65112	103.94719	185.48972	-1767.42786	81.65598	149.94493	-1968.64087	53.45383	181.85582	-1984.67664	63.52251	142.03337	-1958.06738	49.61633	94.06305
726	6.04167	-1869.71130	994.77100	277.92941	-2055.05225	942.40173	354.45050	-2096.18115	597.40582	395.68988	-2120.97437	562.73999	390.10269	-2154.44629	625.50189	387.51837	-2168.34180	585.69958	382.90683	-2174.40918	509.02200	375.70187	-2175.04736	502.86789	266.61749	-2128.05884	408.30399	390.86322	-2141.20459	364.54761	397.37747	-2188.18188	420.04965	384.08606	-2193.52612	377.19064	389.74942	-2182.98193	110.27747	360.36252	-2203.68188	125.84763	278.97141	-2123.81274	88.95743	305.16153	-2302.88745	81.49081	385.23279	-2340.82227	111.34141	335.08719	-2323.93018	98.86983	293.89209	-1878.49829	1007.16968	147.10721	-2056.80469	961.97510	97.41488	-1896.62720	595.23627	63.92763	-1896.03601	552.02509	63.12645	-1957.88208	587.37421	72.46342	-1947.76147	544.85083	68.83134	-1902.19250	436.18268	91.00751	-1902.07629	438.59647	179.36937	-1857.52625	285.39883	106.21450	-1851.09241	238.25005	108.75420	-1917.34680	273.47815	118.08195	-1902.49097	227.15265	115.21990	-1826.42761	100.61143	103.50302	-1837.81812	104.08123	185.54048	-1767.51428	81.98949	149.96445	-1968.75684	53.37059	181.82460	-1984.84143	63.39339	142.00400	-1958.16406	49.56545	94.06184
